<?xml version="1.0" encoding="UTF-8"?>
<svg width="512" height="512" viewBox="0 0 512 512" fill="none" xmlns="http://www.w3.org/2000/svg">
  <!-- Ícone de prédio/escritório simplificado -->
  <rect x="156" y="96" width="200" height="352" fill="#ffffff" rx="8"/>
  <rect x="176" y="128" width="32" height="32" fill="#1f2937"/>
  <rect x="224" y="128" width="32" height="32" fill="#1f2937"/>
  <rect x="272" y="128" width="32" height="32" fill="#1f2937"/>
  <rect x="176" y="176" width="32" height="32" fill="#1f2937"/>
  <rect x="224" y="176" width="32" height="32" fill="#1f2937"/>
  <rect x="272" y="176" width="32" height="32" fill="#1f2937"/>
  <rect x="176" y="224" width="32" height="32" fill="#1f2937"/>
  <rect x="224" y="224" width="32" height="32" fill="#1f2937"/>
  <rect x="272" y="224" width="32" height="32" fill="#1f2937"/>
  <rect x="176" y="272" width="32" height="32" fill="#1f2937"/>
  <rect x="224" y="272" width="32" height="32" fill="#1f2937"/>
  <rect x="272" y="272" width="32" height="32" fill="#1f2937"/>
  <!-- Porta de entrada -->
  <rect x="208" y="352" width="48" height="96" fill="#1f2937"/>
  <circle cx="240" cy="384" r="3" fill="#ffffff"/>
  
  <!-- Texto ITEC -->
  <text x="256" y="80" text-anchor="middle" fill="#ffffff" font-family="Arial, sans-serif" font-size="32" font-weight="bold">ITEC</text>
</svg>